<?xml version="1.0" encoding="UTF-8"?>
<svg id="Layer_2" data-name="Layer 2" xmlns="http://www.w3.org/2000/svg" viewBox="0 0 1683.78 940.34">
  <defs>
    <style>
      .cls-1 {
        fill: #00b1dc;
        opacity: .15;
        stroke-width: 0px;
      }
    </style>
  </defs>
  <g id="Layer_3" data-name="Layer 3">
    <path class="cls-1" d="m1683.78,0v940.34l-6.24-6.37c-2.31-2.13-4.84-4.34-7.56-6.61-.51-.43-1.02-.86-1.55-1.29-.59-.49-1.2-.98-1.81-1.47-.58-.47-1.16-.94-1.75-1.4-4.74-3.77-9.98-7.69-15.7-11.73-.71-.49-1.42-1-2.15-1.5-2.19-1.52-4.44-3.06-6.76-4.61-.76-.52-1.54-1.03-2.32-1.55-3.16-2.08-6.43-4.19-9.81-6.32-.85-.53-1.7-1.07-2.56-1.6-3.83-2.38-7.8-4.78-11.9-7.2-.76-.45-1.52-.89-2.29-1.34-.76-.45-1.53-.9-2.31-1.34-.37-.21-.74-.43-1.11-.64-.47-.27-.95-.55-1.43-.82-.95-.55-1.91-1.09-2.88-1.64-.84-.48-1.69-.95-2.54-1.43-.63-.35-1.27-.71-1.91-1.06-.7-.39-1.4-.78-2.1-1.16-7.75-4.27-15.89-8.56-24.4-12.83-1.09-.55-2.19-1.1-3.3-1.65-2.21-1.1-4.45-2.2-6.71-3.29-.89-.43-1.79-.86-2.68-1.29-.9-.43-1.81-.86-2.71-1.3-.94-.44-1.89-.89-2.85-1.34-1.5-.7-3-1.41-4.52-2.11-3.29-1.52-6.61-3.03-9.99-4.54-1.69-.76-3.39-1.51-5.1-2.26-.14-.06-.28-.13-.42-.19-1.57-.69-3.15-1.37-4.74-2.06-1.41-.61-2.83-1.22-4.26-1.82-1.48-.63-2.97-1.26-4.47-1.89-1.88-.79-3.78-1.57-5.68-2.35-2.1-.86-4.22-1.72-6.36-2.58-1.07-.43-2.14-.86-3.21-1.28-1.08-.43-2.16-.85-3.24-1.27-4.74-1.86-9.55-3.69-14.42-5.5-1.35-.5-2.7-1-4.07-1.5-1.58-.58-3.17-1.16-4.77-1.73-2.25-.81-4.51-1.61-6.79-2.41-2.29-.8-4.59-1.6-6.9-2.38-1.15-.4-2.31-.79-3.47-1.18-1.17-.39-2.33-.78-3.5-1.17-2.34-.78-4.69-1.55-7.05-2.31-2.52-.81-5.06-1.62-7.6-2.42-1.47-.45-2.94-.91-4.41-1.36-1.48-.46-2.96-.91-4.45-1.35-1.72-.52-3.44-1.04-5.16-1.55-1.22-.35-2.43-.71-3.65-1.06-1.5-.43-3.02-.87-4.53-1.31-.23-.06-.45-.12-.68-.19-1.34-.38-2.69-.76-4.04-1.13-1.56-.44-3.11-.86-4.67-1.29s-3.13-.85-4.7-1.27c-1.24-.33-2.48-.66-3.72-.98-2.38-.63-4.76-1.24-7.16-1.85-.36-.09-.72-.18-1.08-.27-2.32-.59-4.66-1.16-7-1.73-1.12-.28-2.23-.55-3.35-.81-.09-.03-.19-.05-.28-.07-.12-.03-.24-.06-.35-.08-1.24-.3-2.48-.59-3.73-.88-1.29-.31-2.58-.6-3.88-.9-2.73-.63-5.48-1.24-8.24-1.84-2.76-.61-5.53-1.2-8.31-1.78-1.39-.29-2.78-.57-4.18-.86-1.39-.28-2.79-.56-4.19-.84-1.43-.28-2.86-.56-4.29-.84-.48-.09-.95-.18-1.43-.27-.91-.17-1.82-.34-2.72-.51-1.17-.23-2.34-.44-3.52-.66-.19-.04-.39-.07-.58-.11l-3.18-.57c-.98-.18-1.97-.35-2.95-.52-.27-.06-.54-.1-.81-.15l-3.33-.57c-3.14-.53-6.3-1.05-9.46-1.55-2.29-.36-4.59-.71-6.9-1.06-1.89-.28-3.79-.56-5.69-.83-.13-.02-.26-.04-.39-.06-.17-.02-.34-.05-.51-.07-1.93-.28-3.85-.54-5.79-.8-.68-.09-1.37-.18-2.05-.27-1.26-.17-2.51-.33-3.77-.49-1.87-.24-3.75-.47-5.64-.7-1.34-.16-2.69-.32-4.04-.47-1.86-.22-3.73-.43-5.6-.63-1.85-.2-3.71-.39-5.57-.58-.31-.03-.62-.06-.93-.09-1.26-.13-2.52-.25-3.78-.37-.96-.09-1.92-.18-2.89-.27-.12-.01-.23-.02-.35-.03-1.44-.13-2.88-.26-4.33-.38-.32-.04-.64-.06-.96-.09-1.77-.15-3.54-.29-5.32-.43-.17,0-.34-.03-.51-.04-1.1-.08-2.19-.16-3.29-.24-3.05-.22-6.11-.42-9.17-.61-1.93-.12-3.86-.23-5.8-.33-1.87-.1-3.75-.2-5.64-.28-.15,0-.3-.02-.45-.02-1.54-.07-3.08-.14-4.62-.2h-.07c-1.21-.05-2.42-.1-3.63-.14-1.13-.04-2.26-.08-3.39-.11-1.74-.06-3.49-.1-5.23-.14-.18-.01-.36-.01-.54-.01-.94-.03-1.88-.05-2.83-.06-.1,0-.2,0-.3,0-1.21-.03-2.43-.05-3.65-.06-1.78-.03-3.55-.05-5.34-.06-1.78,0-3.56-.02-5.35-.02-2.56,0-5.11.01-7.65.03-2.54.02-5.06.05-7.57.09-1.83.03-3.66.06-5.48.1-.12,0-.24.01-.36.01-1,.02-2.01.04-3.01.07-1.01.02-2.01.05-3,.08-.85.03-1.7.05-2.54.07-.78.02-1.56.05-2.33.07-.07.01-.13.01-.2.01-.1,0-.21.01-.31.01-.88.03-1.75.06-2.62.09-1.37.05-2.74.1-4.11.16-.43.02-.86.03-1.28.06-1.81.07-3.61.15-5.41.24-2.11.1-4.22.21-6.31.32-1.76.1-3.52.2-5.26.3-.24.02-.47.03-.71.05-.5.03-1.01.06-1.51.09-1.52.1-3.03.2-4.54.3-1,.06-2.01.14-3.01.21s-2,.15-3,.22c-1.54.11-3.06.23-4.58.35-.12.01-.25.02-.37.03-1.88.15-3.75.31-5.6.47-1.79.15-3.57.31-5.34.48-.81.07-1.61.15-2.41.23-.1,0-.19.02-.29.03-1.55.14-3.09.29-4.62.45-2,.21-3.98.41-5.96.63-1.98.22-3.95.44-5.91.66-1.6.18-3.19.36-4.77.56-.17.02-.35.04-.52.06-.23.03-.45.05-.67.08-.16.02-.32.04-.48.06-.03,0-.07.01-.1.01-1.61.2-3.21.4-4.81.61-1.87.24-3.74.49-5.6.74-2.75.37-5.48.75-8.2,1.15-1.37.2-2.73.4-4.09.6-1.47.22-2.93.44-4.39.67-.89.14-1.78.28-2.66.42-.94.15-1.88.3-2.82.45-1.66.26-3.31.54-4.96.81-.17.03-.33.06-.5.09-1.74.29-3.48.59-5.22.89-1.78.31-3.56.63-5.34.95-1.82.33-3.63.66-5.44,1-.06.01-.13.02-.19.03-.24.05-.48.09-.72.14-3.18.59-6.33,1.21-9.47,1.84-1.23.24-2.45.48-3.66.74-.29.05-.58.11-.87.17-.38.08-.75.16-1.12.23-1.09.23-2.17.45-3.25.68-2.22.46-4.44.94-6.64,1.42-.8.17-1.6.34-2.4.52-.8.18-1.6.36-2.4.53-1.59.35-3.18.71-4.76,1.08-.3.07-.6.14-.89.21-3.3.75-6.59,1.53-9.86,2.31-1.68.41-3.34.81-5.01,1.22-1.67.41-3.33.82-4.98,1.24-2.49.62-4.96,1.26-7.43,1.9-2.28.59-4.55,1.19-6.82,1.79-.14.04-.29.08-.44.12-2.41.64-4.81,1.3-7.2,1.95l-.78.21c-2.26.63-4.51,1.26-6.76,1.89-2.42.68-4.83,1.37-7.24,2.06-.1.03-.19.06-.29.08-2.31.67-4.61,1.35-6.91,2.03-2.39.7-4.78,1.42-7.17,2.14-2.38.72-4.76,1.44-7.13,2.17-1.58.48-3.16.97-4.73,1.46-1.58.49-3.15.98-4.72,1.48-3.15.99-6.28,1.98-9.41,2.99-3.25,1.04-6.49,2.09-9.72,3.15-.55.18-1.1.36-1.65.54-.11.04-.23.07-.34.11-.26.08-.51.17-.77.26-2.07.68-4.15,1.36-6.21,2.05-12.42,4.13-24.76,8.35-37.09,12.62-15.53,5.37-31.04,10.83-46.7,16.25-2.85.99-5.7,1.98-8.56,2.96-.59.21-1.18.41-1.78.61-1.21.42-2.42.84-3.63,1.25-1.74.6-3.48,1.19-5.22,1.79-5.11,1.74-10.24,3.48-15.39,5.2-2.31.77-4.61,1.54-6.93,2.31-1.97.66-3.93,1.31-5.91,1.96-.03.01-.07.02-.1.03h0c-1.32.44-2.65.87-3.98,1.3-2.93.96-5.87,1.91-8.82,2.85-1.88.61-3.77,1.21-5.66,1.81-1.89.6-3.79,1.2-5.69,1.79-3.81,1.2-7.63,2.38-11.48,3.55-1.59.48-3.18.97-4.78,1.45-.33.1-.67.2-1,.3-1.93.58-3.87,1.16-5.81,1.73-4.01,1.19-8.04,2.36-12.1,3.52-3.42.98-6.86,1.94-10.33,2.9-1.64.45-3.28.9-4.93,1.35-1.25.34-2.5.67-3.76,1.02-.16.04-.32.09-.48.13-3.54.94-7.11,1.88-10.7,2.81-1.85.48-3.71.96-5.57,1.43-2.37.59-4.74,1.19-7.12,1.77-1.48.37-2.97.73-4.47,1.1-.99.23-1.98.47-2.98.71-.1.02-.2.05-.3.07-2.18.52-4.37,1.03-6.57,1.54-.65.15-1.29.3-1.93.45-1.22.28-2.44.56-3.66.83-1.51.34-3.02.68-4.53,1.02-1.42.31-2.85.63-4.29.94-2.88.62-5.77,1.24-8.68,1.85-1.79.37-3.59.74-5.4,1.11-1.01.21-2.02.41-3.04.61l-1.05.21c-1.1.22-2.2.44-3.3.65-.38.07-.76.15-1.14.22-1.63.32-3.25.63-4.89.94-1.31.25-2.63.5-3.95.74-1.12.21-2.23.42-3.36.62-1.12.21-2.24.41-3.37.61-1.44.25-2.88.51-4.33.76-1.6.28-3.22.56-4.84.83-1.33.23-2.68.45-4.02.68-2.44.4-4.89.8-7.35,1.18-2.32.37-4.64.73-6.98,1.08-1.17.18-2.34.35-3.51.52-2.35.35-4.71.69-7.08,1.02-1.48.21-2.97.41-4.46.61-1.49.21-2.98.41-4.48.6-3,.4-6.01.78-9.05,1.15-1.41.17-2.83.35-4.25.52s-2.85.33-4.27.49c-2.06.24-4.12.47-6.19.69-3.04.33-6.09.65-9.17.96-.68.07-1.37.14-2.06.2l-3.78.36c-1.27.12-2.53.24-3.8.35-1.27.12-2.55.23-3.82.34-1.28.11-2.56.22-3.84.33-1.63.13-3.27.27-4.91.4-1.41.11-2.82.22-4.24.32-2.83.22-5.68.42-8.54.61-1.43.1-2.87.19-4.31.28-.78.06-1.57.1-2.36.15-.79.05-1.58.1-2.38.15-2.06.12-4.13.24-6.21.35-.84.05-1.67.09-2.51.13-2.69.14-5.4.27-8.12.39-1.35.06-2.72.12-4.08.18-1.37.06-2.74.11-4.11.16-1.69.07-3.39.13-5.09.18-1.35.05-2.7.09-4.06.13-1.66.05-3.34.1-5.01.14-1.68.04-3.36.08-5.04.12-1.69.04-3.38.07-5.08.1-1.7.03-3.4.06-5.11.08-2.68.04-5.37.07-8.07.09-12.17.09-24.62,0-37.36-.27-1.99-.04-3.96-.09-5.92-.14-.16,0-.32-.01-.48-.01-1.57-.05-3.13-.09-4.68-.14h-.05c-1.39-.04-2.77-.09-4.14-.14-1.62-.05-3.24-.11-4.85-.17-.54-.03-1.08-.05-1.62-.07-2.2-.09-4.39-.18-6.57-.29-.23-.01-.45-.02-.67-.03-.97-.05-1.93-.09-2.89-.14s-1.92-.1-2.88-.15c-.31-.02-.61-.03-.92-.05-1.29-.07-2.58-.14-3.86-.21-.31-.02-.62-.04-.93-.06-.06,0-.11-.01-.17-.01h-.03c-1.32-.07-2.62-.15-3.92-.24-1.26-.08-2.52-.16-3.77-.24-1.89-.13-3.78-.26-5.65-.39-5.74-.42-11.38-.88-16.92-1.39-1.22-.11-2.44-.22-3.65-.34-.11-.01-.22-.02-.33-.03-1.05-.1-2.09-.2-3.13-.31-1.26-.12-2.52-.25-3.78-.38-1.76-.18-3.51-.37-5.25-.56-1.81-.2-3.6-.4-5.38-.61-.88-.1-1.75-.21-2.63-.31-.87-.11-1.74-.21-2.6-.32-.7-.09-1.39-.17-2.09-.26-.69-.09-1.39-.17-2.08-.27-.07,0-.13-.01-.2-.02-2.17-.28-4.33-.57-6.47-.86-.17-.02-.35-.05-.52-.07-1.32-.19-2.62-.37-3.93-.56-1.67-.24-3.33-.48-4.97-.73-.7-.1-1.4-.21-2.1-.32-.7-.11-1.4-.22-2.09-.33-.54-.08-1.09-.16-1.63-.25-.47-.08-.95-.15-1.42-.23h-.02c-.84-.13-1.68-.27-2.51-.41-4.82-.79-9.55-1.63-14.19-2.5-.69-.13-1.39-.26-2.08-.39-.36-.06-.71-.13-1.07-.2-.95-.18-1.89-.37-2.82-.55-.15-.03-.31-.06-.46-.09-.92-.18-1.82-.36-2.73-.55-1.18-.24-2.34-.48-3.51-.72-.15-.03-.31-.06-.46-.09-.77-.16-1.54-.32-2.3-.49-1.21-.26-2.41-.52-3.61-.78-4.07-.89-8.07-1.82-12-2.77-.59-.14-1.18-.28-1.77-.43-.42-.1-.84-.2-1.25-.31-.17-.04-.33-.08-.5-.12-.65-.16-1.29-.32-1.93-.49-1.03-.25-2.05-.52-3.06-.78-3.49-.9-6.91-1.83-10.28-2.77-1.07-.3-2.13-.6-3.18-.91-1.62-.47-3.23-.94-4.83-1.42-.77-.22-1.53-.45-2.29-.69-1.17-.35-2.33-.71-3.49-1.08-1.15-.36-2.3-.72-3.44-1.09-.11-.04-.22-.07-.33-.11-.82-.26-1.64-.53-2.45-.8-2.04-.67-4.06-1.35-6.06-2.04-1.26-.43-2.51-.87-3.74-1.3-.8-.29-1.61-.58-2.4-.87-.8-.29-1.6-.58-2.38-.87-.8-.29-1.58-.58-2.36-.88-.79-.29-1.56-.59-2.34-.88-1.23-.47-2.46-.95-3.67-1.43-2.43-.96-4.82-1.93-7.17-2.91-.85-.35-1.69-.7-2.52-1.06-.87-.37-1.74-.75-2.6-1.12-1.01-.44-2.02-.88-3.01-1.33-1-.44-1.99-.89-2.97-1.34-.86-.39-1.73-.79-2.58-1.19-.06-.03-.11-.05-.17-.08-.88-.41-1.75-.82-2.62-1.24-.45-.21-.9-.43-1.35-.65-.75-.36-1.5-.72-2.24-1.09-.8-.39-1.59-.78-2.38-1.18-.78-.39-1.56-.79-2.34-1.19-.13-.06-.27-.13-.4-.2-.64-.34-1.28-.67-1.92-1-.57-.29-1.14-.59-1.7-.89-.89-.48-1.77-.95-2.64-1.43-1.84-.99-3.64-1.99-5.4-3-.88-.5-1.76-1.01-2.63-1.52-.72-.41-1.42-.83-2.13-1.25-1.89-1.12-3.74-2.25-5.55-3.39-.81-.5-1.61-1.01-2.4-1.52-.39-.25-.77-.49-1.15-.74-.61-.39-1.22-.79-1.82-1.19-.5-.33-1.01-.67-1.5-1-.5-.33-1-.66-1.49-1-.98-.66-1.95-1.33-2.91-2-.55-.39-1.1-.77-1.64-1.16-.38-.26-.75-.53-1.12-.8-.74-.53-1.47-1.06-2.2-1.6-1.29-.94-2.55-1.89-3.79-2.84-1.15-.88-2.28-1.76-3.39-2.64-.03-.03-.07-.05-.1-.08-.52-.41-1.04-.83-1.55-1.25-.55-.44-1.09-.88-1.63-1.33-.54-.44-1.08-.88-1.61-1.33-.63-.53-1.26-1.06-1.88-1.6-.42-.35-.83-.71-1.24-1.07-.68-.58-1.35-1.18-2.01-1.77-.35-.31-.69-.61-1.02-.92-.74-.67-1.48-1.34-2.21-2.02-.73-.67-1.45-1.34-2.15-2.02-.47-.45-.94-.9-1.4-1.35-.7-.67-1.39-1.35-2.06-2.03-.68-.67-1.35-1.35-2.01-2.03-.44-.45-.87-.9-1.3-1.35-.44-.45-.86-.9-1.29-1.36-.66-.7-1.31-1.4-1.95-2.1-.18-.2-.36-.4-.55-.61-.55-.61-1.1-1.22-1.64-1.83-1.06-1.2-2.09-2.4-3.09-3.59-.43-.51-.85-1.02-1.27-1.53-.09-.11-.19-.23-.28-.34-.6-.73-1.19-1.46-1.77-2.19-.36-.45-.71-.9-1.06-1.35-.6-.75-1.17-1.5-1.74-2.25-.11-.15-.22-.29-.33-.44-.33-.45-.67-.9-1-1.35s-.66-.89-.98-1.34c-.32-.45-.64-.9-.96-1.34-.32-.45-.63-.89-.94-1.34V0h1683.78Z"/>
  </g>
</svg>