<?xml version="1.0" encoding="UTF-8"?>
<svg id="Layer_2" data-name="Layer 2" xmlns="http://www.w3.org/2000/svg" viewBox="0 0 1683.78 783.6">
  <defs>
    <style>
      .cls-1 {
        fill: #c77161;
        opacity: .38;
        stroke-width: 0px;
      }
    </style>
  </defs>
  <g id="Bakgrunn">
    <path class="cls-1" d="m1683.78,164.83v618.77c-65.04-80.37-141.36-151.23-226.54-210.19-134.56-93.14-291.25-156.58-460.58-180.82h-.01c-50.55-7.24-102.21-10.98-154.76-10.98-38.34,0-76.21,1.99-113.52,5.88h0c-96.96,10.11-190.1,33.01-277.72,67-143.16,55.5-271.57,140.59-377.73,247.75-25.64,25.87-49.98,53.02-72.91,81.36V34.97c39.71,57.03,133.3,121.44,353.43,126.1C749.2,169.44,859.33,0,1195.54,0c228.69,0,422.71,103.88,482,158.46l6.24,6.37Z"/>
  </g>
</svg>